<svg xmlns="http://www.w3.org/2000/svg" viewBox="0 0 304 534">
  <path id="Selection" fill="white" d="M 19.00,0.53            C 19.00,0.53 45.00,0.00 45.00,0.00              45.00,0.00 93.00,0.00 93.00,0.00              93.00,0.00 240.00,0.00 240.00,0.00              240.00,0.00 279.00,0.00 279.00,0.00              294.51,0.08 303.97,9.54 304.00,25.00              304.00,25.00 304.00,69.00 304.00,69.00              303.81,84.56 292.49,91.98 278.00,92.00              278.00,92.00 244.00,92.00 244.00,92.00              238.15,92.07 231.59,93.29 226.00,95.02              220.22,96.81 217.10,97.94 212.00,101.36              186.86,118.18 184.68,145.35 185.00,173.00              185.00,173.00 185.91,183.00 185.91,183.00              185.91,183.00 189.83,221.00 189.83,221.00              189.83,221.00 192.09,248.00 192.09,248.00              192.09,248.00 193.00,260.00 193.00,260.00              193.00,260.00 193.00,280.00 193.00,280.00              193.00,280.00 192.09,292.00 192.09,292.00              192.09,292.00 185.91,356.00 185.91,356.00              185.91,356.00 185.00,368.00 185.00,368.00              184.98,381.13 187.10,400.22 192.99,412.00              201.81,429.62 221.49,440.97 241.00,441.00              241.00,441.00 273.00,441.00 273.00,441.00              290.49,441.21 303.97,447.45 304.00,467.00              304.00,467.00 304.00,509.00 304.00,509.00              303.97,525.43 292.73,533.98 277.00,534.00              277.00,534.00 64.00,534.00 64.00,534.00              64.00,534.00 39.00,534.00 39.00,534.00              23.46,534.00 7.40,535.35 1.11,517.00              -0.12,513.42 0.01,510.69 0.00,507.00              0.00,507.00 0.00,466.00 0.00,466.00              0.13,456.20 6.55,446.41 16.00,443.11              20.35,441.59 28.31,441.01 33.00,441.00              33.00,441.00 64.00,441.00 64.00,441.00              71.62,440.99 73.78,440.44 81.00,438.00              86.12,436.26 90.49,434.28 95.00,431.25              116.75,416.62 119.28,392.02 119.00,368.00              119.00,368.00 118.09,358.00 118.09,358.00              118.09,358.00 113.28,317.00 113.28,317.00              113.28,317.00 110.83,292.00 110.83,292.00              110.83,292.00 109.09,266.00 109.09,266.00              109.09,266.00 113.28,221.00 113.28,221.00              113.28,221.00 118.09,178.00 118.09,178.00              118.09,178.00 119.00,166.00 119.00,166.00              119.02,152.13 117.27,134.60 111.21,122.00              101.43,101.64 79.68,92.03 58.00,92.00              58.00,92.00 41.00,92.00 41.00,92.00              24.40,92.00 7.80,94.93 1.10,75.00              -0.12,71.34 0.01,68.76 0.00,65.00              0.00,65.00 0.00,37.00 0.00,37.00              0.00,20.09 -0.99,6.44 19.00,0.53 Z            M 23.00,5.07            C 19.78,5.93 16.90,6.64 14.04,8.36              2.55,15.28 5.00,31.56 5.00,43.00              5.00,57.07 1.29,80.08 18.00,85.89              21.53,87.12 24.36,86.99 28.00,87.00              28.00,87.00 236.00,87.00 236.00,87.00              236.00,87.00 268.00,87.00 268.00,87.00              273.13,87.00 281.36,87.50 286.00,85.89              296.23,82.33 298.98,74.88 299.00,65.00              299.00,65.00 299.00,25.00 299.00,25.00              298.87,15.78 294.19,8.46 285.00,5.93              280.16,4.59 272.24,5.00 267.00,5.07              267.00,5.07 236.00,5.07 236.00,5.07              236.00,5.07 95.00,5.07 95.00,5.07              95.00,5.07 23.00,5.07 23.00,5.07 Z            M 47.54,22.17            C 51.32,21.66 50.94,25.06 51.00,28.00              51.00,28.00 51.00,64.00 51.00,64.00              50.97,65.52 50.78,71.88 47.54,69.83              45.92,68.80 46.04,65.67 46.00,64.00              46.00,64.00 46.00,35.00 46.00,35.00              46.00,30.91 45.02,25.55 47.54,22.17 Z            M 214.00,93.00            C 204.51,91.30 193.72,92.00 184.00,92.00              184.00,92.00 134.00,92.00 134.00,92.00              125.13,92.00 97.76,91.08 91.00,93.00              100.70,101.86 107.34,102.73 115.10,117.00              124.57,134.40 124.03,152.96 124.00,172.00              124.00,172.00 118.28,224.00 118.28,224.00              115.87,242.31 114.79,260.53 115.00,279.00              115.00,279.00 115.91,289.00 115.91,289.00              115.91,289.00 122.16,344.00 122.16,344.00              122.16,344.00 124.00,363.00 124.00,363.00              124.24,383.66 124.30,407.03 110.53,424.00              101.57,435.04 98.48,434.18 90.00,441.00              90.00,441.00 177.00,441.00 177.00,441.00              177.00,441.00 202.00,441.00 202.00,441.00              202.00,441.00 215.00,440.00 215.00,440.00              189.99,429.15 180.04,401.61 180.00,376.00              180.00,376.00 180.00,360.00 180.00,360.00              180.00,360.00 180.91,350.00 180.91,350.00              180.91,350.00 187.09,288.00 187.09,288.00              187.09,288.00 188.00,278.00 188.00,278.00              188.32,250.44 184.74,226.17 181.84,199.00              181.84,199.00 180.00,177.00 180.00,177.00              180.00,177.00 180.00,154.00 180.00,154.00              180.12,143.69 184.01,127.03 188.90,118.00              197.02,103.00 202.78,102.44 214.00,93.00 Z            M 20.00,447.08            C 2.73,452.58 5.00,467.70 5.00,482.00              5.00,482.00 5.00,499.00 5.00,499.00              5.00,510.92 4.89,523.56 19.00,527.70              23.17,528.92 26.72,528.99 31.00,529.00              31.00,529.00 237.00,529.00 237.00,529.00              237.00,529.00 251.00,529.00 251.00,529.00              251.00,529.00 268.00,529.00 268.00,529.00              280.02,529.00 294.02,529.38 298.35,515.00              299.11,512.50 299.00,509.60 299.00,507.00              299.00,507.00 299.00,467.00 299.00,467.00              298.89,457.94 295.21,450.58 286.00,447.80              282.01,446.59 272.59,447.00 268.00,447.08              268.00,447.08 235.00,447.08 235.00,447.08              235.00,447.08 92.00,447.08 92.00,447.08              92.00,447.08 46.00,447.08 46.00,447.08              46.00,447.08 20.00,447.08 20.00,447.08 Z            M 47.54,464.17            C 51.32,463.66 50.94,467.06 51.00,470.00              51.00,470.00 51.00,506.00 51.00,506.00              50.97,507.52 50.78,513.88 47.54,511.83              45.92,510.80 46.04,507.67 46.00,506.00              46.00,506.00 46.00,477.00 46.00,477.00              46.00,472.91 45.02,467.55 47.54,464.17 Z"/>
</svg>